{
    "asset":{
        "generator":"Khronos glTF Blender I/O v3.6.27",
        "version":"2.0"
    },
    "extensionsUsed":[
        "KHR_materials_emissive_strength"
    ],
    "scene":0,
    "scenes":[
        {
            "name":"Scene",
            "nodes":[
                0
            ]
        }
    ],
    "nodes":[
        {
            "mesh":0,
            "name":"CubeTexture"
        }
    ],
    "materials":[
        {
            "doubleSided":true,
            "name":"blueMetallic",
            "pbrMetallicRoughness":{
                "baseColorFactor":[
                    0.0678245797753334,
                    0.0701543390750885,
                    1,
                    1
                ],
                "metallicFactor":0.6894736886024475,
                "roughnessFactor":0.2052631378173828
            }
        },
        {
            "doubleSided":true,
            "emissiveFactor":[
                1,
                1,
                1
            ],
            "emissiveTexture":{
                "index":0
            },
            "extensions":{
                "KHR_materials_emissive_strength":{
                    "emissiveStrength":4.299999713897705
                }
            },
            "name":"EmissiveTexture",
            "pbrMetallicRoughness":{
                "baseColorFactor":[
                    0,
                    0,
                    0,
                    1
                ],
                "metallicFactor":0.954954981803894,
                "roughnessFactor":0.9594594836235046
            }
        }
    ],
    "meshes":[
        {
            "name":"EmissiveCubeWithTexture",
            "primitives":[
                {
                    "attributes":{
                        "POSITION":0,
                        "NORMAL":1,
                        "TEXCOORD_0":2
                    },
                    "indices":3,
                    "material":0
                },
                {
                    "attributes":{
                        "POSITION":4,
                        "NORMAL":5,
                        "TEXCOORD_0":6
                    },
                    "indices":7,
                    "material":1
                }
            ]
        }
    ],
    "textures":[
        {
            "sampler":0,
            "source":0
        }
    ],
    "images":[
        {
            "bufferView":8,
            "mimeType":"image/png",
            "name":"texture"
        }
    ],
    "accessors":[
        {
            "bufferView":0,
            "componentType":5126,
            "count":20,
            "max":[
                1,
                1,
                1
            ],
            "min":[
                -1,
                -1,
                -1
            ],
            "type":"VEC3"
        },
        {
            "bufferView":1,
            "componentType":5126,
            "count":20,
            "type":"VEC3"
        },
        {
            "bufferView":2,
            "componentType":5126,
            "count":20,
            "type":"VEC2"
        },
        {
            "bufferView":3,
            "componentType":5123,
            "count":30,
            "type":"SCALAR"
        },
        {
            "bufferView":4,
            "componentType":5126,
            "count":4,
            "max":[
                1,
                1,
                1
            ],
            "min":[
                -1,
                -1,
                1
            ],
            "type":"VEC3"
        },
        {
            "bufferView":5,
            "componentType":5126,
            "count":4,
            "type":"VEC3"
        },
        {
            "bufferView":6,
            "componentType":5126,
            "count":4,
            "type":"VEC2"
        },
        {
            "bufferView":7,
            "componentType":5123,
            "count":6,
            "type":"SCALAR"
        }
    ],
    "bufferViews":[
        {
            "buffer":0,
            "byteLength":240,
            "byteOffset":0,
            "target":34962
        },
        {
            "buffer":0,
            "byteLength":240,
            "byteOffset":240,
            "target":34962
        },
        {
            "buffer":0,
            "byteLength":160,
            "byteOffset":480,
            "target":34962
        },
        {
            "buffer":0,
            "byteLength":60,
            "byteOffset":640,
            "target":34963
        },
        {
            "buffer":0,
            "byteLength":48,
            "byteOffset":700,
            "target":34962
        },
        {
            "buffer":0,
            "byteLength":48,
            "byteOffset":748,
            "target":34962
        },
        {
            "buffer":0,
            "byteLength":32,
            "byteOffset":796,
            "target":34962
        },
        {
            "buffer":0,
            "byteLength":12,
            "byteOffset":828,
            "target":34963
        },
        {
            "buffer":0,
            "byteLength":387183,
            "byteOffset":840
        }
    ],
    "samplers":[
        {
            "magFilter":9729,
            "minFilter":9987
        }
    ],
    "buffers":[
        {
            "byteLength":388024,
            "uri":"data:application/octet-stream;base64,"
        }
    ]
}
