# Blender v2.67 (sub 0) OBJ File: ''
# www.blender.org
o Wood_container1
v -83.000000 -83.000015 95.999985
v 83.000000 -83.000015 95.999985
v 83.000000 82.999985 96.000015
v -83.000000 82.999985 96.000015
v -83.000000 -82.999985 -96.000015
v -83.000000 83.000015 -95.999985
v 83.000000 83.000015 -95.999985
v 83.000000 -82.999985 -96.000015
v -83.000000 -96.000015 82.999985
v -83.000000 -95.999985 -83.000015
v 83.000000 -95.999985 -83.000015
v 83.000000 -96.000015 82.999985
v 96.000000 -83.000015 82.999985
v 96.000000 -82.999985 -83.000015
v 96.000000 83.000015 -82.999985
v 96.000000 82.999985 83.000015
v 83.000000 95.999985 83.000015
v 83.000000 96.000015 -82.999985
v -83.000000 96.000015 -82.999985
v -83.000000 95.999985 83.000015
v -96.000000 82.999985 83.000015
v -96.000000 83.000015 -82.999985
v -96.000000 -82.999985 -83.000015
v -96.000000 -83.000015 82.999985
v -100.000000 -100.000015 99.999985
v 100.000000 -100.000015 99.999985
v 83.000000 -83.000015 99.999985
v -83.000000 -83.000015 99.999985
v 100.000000 99.999985 100.000015
v 83.000000 82.999985 100.000015
v -100.000000 99.999985 100.000015
v -83.000000 82.999985 100.000015
v -100.000000 -99.999985 -100.000015
v -100.000000 100.000015 -99.999985
v -83.000000 83.000015 -99.999985
v -83.000000 -82.999985 -100.000015
v 100.000000 100.000015 -99.999985
v 83.000000 83.000015 -99.999985
v 100.000000 -99.999985 -100.000015
v 83.000000 -82.999985 -100.000015
v -83.000000 -99.999985 -83.000015
v -83.000000 -100.000015 82.999985
v 83.000000 -99.999985 -83.000015
v 83.000000 -100.000015 82.999985
v 100.000000 -82.999985 -83.000015
v 100.000000 -83.000015 82.999985
v 100.000000 83.000015 -82.999985
v 100.000000 82.999985 83.000015
v 83.000000 100.000015 -82.999985
v 83.000000 99.999985 83.000015
v -83.000000 100.000015 -82.999985
v -83.000000 99.999985 83.000015
v -100.000000 83.000015 -82.999985
v -100.000000 82.999985 83.000015
v -100.000000 -82.999985 -83.000015
v -100.000000 -83.000015 82.999985
v -100.000000 99.999985 100.000015
v -100.000000 99.999985 100.000015
v -100.000000 99.999985 100.000015
v -100.000000 99.999985 100.000015
v -100.000000 99.999985 100.000015
v -83.000000 99.999985 83.000015
v -83.000000 99.999985 83.000015
v -83.000000 99.999985 83.000015
v -100.000000 100.000015 -99.999985
v -100.000000 100.000015 -99.999985
v -100.000000 100.000015 -99.999985
v -100.000000 100.000015 -99.999985
v -100.000000 100.000015 -99.999985
v -83.000000 100.000015 -82.999985
v -83.000000 100.000015 -82.999985
v -83.000000 100.000015 -82.999985
v 83.000000 100.000015 -82.999985
v 83.000000 100.000015 -82.999985
v 83.000000 100.000015 -82.999985
v 83.000000 99.999985 83.000015
v 83.000000 99.999985 83.000015
v 83.000000 99.999985 83.000015
v 83.000000 -99.999985 -83.000015
v 83.000000 -99.999985 -83.000015
v 83.000000 -99.999985 -83.000015
v 83.000000 -100.000015 82.999985
v 83.000000 -100.000015 82.999985
v 83.000000 -100.000015 82.999985
v 83.000000 96.000015 -82.999985
v 83.000000 96.000015 -82.999985
v -83.000000 96.000015 -82.999985
v -83.000000 96.000015 -82.999985
v -100.000000 -100.000015 99.999985
v -100.000000 -100.000015 99.999985
v -100.000000 -100.000015 99.999985
v -100.000000 -100.000015 99.999985
v -100.000000 -100.000015 99.999985
v -83.000000 -100.000015 82.999985
v -83.000000 -100.000015 82.999985
v -83.000000 -100.000015 82.999985
v -96.000000 83.000015 -82.999985
v -96.000000 83.000015 -82.999985
v -100.000000 83.000015 -82.999985
v -100.000000 83.000015 -82.999985
v -100.000000 83.000015 -82.999985
v -83.000000 -82.999985 -96.000015
v -83.000000 -82.999985 -96.000015
v -83.000000 -82.999985 -100.000015
v -83.000000 -82.999985 -100.000015
v -83.000000 -82.999985 -100.000015
v 100.000000 -99.999985 -100.000015
v 100.000000 -99.999985 -100.000015
v 100.000000 -99.999985 -100.000015
v 100.000000 -99.999985 -100.000015
v 100.000000 -99.999985 -100.000015
v 83.000000 -82.999985 -100.000015
v 83.000000 -82.999985 -100.000015
v 83.000000 -82.999985 -100.000015
v 83.000000 82.999985 100.000015
v 83.000000 82.999985 100.000015
v 83.000000 82.999985 100.000015
v -83.000000 82.999985 100.000015
v -83.000000 82.999985 100.000015
v -83.000000 82.999985 100.000015
v -96.000000 -82.999985 -83.000015
v -96.000000 -82.999985 -83.000015
v -83.000000 95.999985 83.000015
v -83.000000 95.999985 83.000015
v 100.000000 100.000015 -99.999985
v 100.000000 100.000015 -99.999985
v 100.000000 100.000015 -99.999985
v 100.000000 100.000015 -99.999985
v 100.000000 100.000015 -99.999985
v 83.000000 83.000015 -99.999985
v 83.000000 83.000015 -99.999985
v 83.000000 83.000015 -99.999985
v 96.000000 82.999985 83.000015
v 96.000000 82.999985 83.000015
v 100.000000 82.999985 83.000015
v 100.000000 82.999985 83.000015
v 100.000000 82.999985 83.000015
v 83.000000 -82.999985 -96.000015
v 83.000000 -82.999985 -96.000015
v 100.000000 -82.999985 -83.000015
v 100.000000 -82.999985 -83.000015
v 100.000000 -82.999985 -83.000015
v 100.000000 -83.000015 82.999985
v 100.000000 -83.000015 82.999985
v 100.000000 -83.000015 82.999985
v -83.000000 -99.999985 -83.000015
v -83.000000 -99.999985 -83.000015
v -83.000000 -99.999985 -83.000015
v 96.000000 -83.000015 82.999985
v 96.000000 -83.000015 82.999985
v 83.000000 -83.000015 99.999985
v 83.000000 -83.000015 99.999985
v 83.000000 -83.000015 99.999985
v 96.000000 83.000015 -82.999985
v 96.000000 83.000015 -82.999985
v 100.000000 83.000015 -82.999985
v 100.000000 83.000015 -82.999985
v 100.000000 83.000015 -82.999985
v -83.000000 -96.000015 82.999985
v -83.000000 -96.000015 82.999985
v -83.000000 83.000015 -95.999985
v -83.000000 83.000015 -95.999985
v -100.000000 -82.999985 -83.000015
v -100.000000 -82.999985 -83.000015
v -100.000000 -82.999985 -83.000015
v -83.000000 83.000015 -99.999985
v -83.000000 83.000015 -99.999985
v -83.000000 83.000015 -99.999985
v -83.000000 -95.999985 -83.000015
v -83.000000 -95.999985 -83.000015
v -96.000000 82.999985 83.000015
v -96.000000 82.999985 83.000015
v -96.000000 -83.000015 82.999985
v -96.000000 -83.000015 82.999985
v 100.000000 -100.000015 99.999985
v 100.000000 -100.000015 99.999985
v 100.000000 -100.000015 99.999985
v 100.000000 -100.000015 99.999985
v 100.000000 -100.000015 99.999985
v -100.000000 -99.999985 -100.000015
v -100.000000 -99.999985 -100.000015
v -100.000000 -99.999985 -100.000015
v -100.000000 -99.999985 -100.000015
v -100.000000 -99.999985 -100.000015
v 83.000000 83.000015 -95.999985
v 83.000000 83.000015 -95.999985
v 83.000000 82.999985 96.000015
v 83.000000 82.999985 96.000015
v -100.000000 82.999985 83.000015
v -100.000000 82.999985 83.000015
v -100.000000 82.999985 83.000015
v -83.000000 -83.000015 99.999985
v -83.000000 -83.000015 99.999985
v -83.000000 -83.000015 99.999985
v 96.000000 -82.999985 -83.000015
v 96.000000 -82.999985 -83.000015
v 83.000000 95.999985 83.000015
v 83.000000 95.999985 83.000015
v -83.000000 -83.000015 95.999985
v -83.000000 -83.000015 95.999985
v -83.000000 82.999985 96.000015
v -83.000000 82.999985 96.000015
v 100.000000 99.999985 100.000015
v 100.000000 99.999985 100.000015
v 100.000000 99.999985 100.000015
v 100.000000 99.999985 100.000015
v 100.000000 99.999985 100.000015
v 83.000000 -95.999985 -83.000015
v 83.000000 -95.999985 -83.000015
v -100.000000 -83.000015 82.999985
v -100.000000 -83.000015 82.999985
v -100.000000 -83.000015 82.999985
v 83.000000 -83.000015 95.999985
v 83.000000 -83.000015 95.999985
v 83.000000 -96.000015 82.999985
v 83.000000 -96.000015 82.999985
vt 0.056200 0.549000
vt 0.454300 0.549000
vt 0.454300 0.947100
vt 0.056200 0.947100
vt 0.947600 0.452400
vt 0.947600 0.058200
vt 0.553400 0.058200
vt 0.553400 0.550900
vt 0.947700 0.550900
vt 0.947700 0.945200
vt 0.058100 0.452400
vt 0.058100 0.058200
vt 0.452300 0.058200
vt 0.553400 0.945200
vt 0.013000 0.505800
vt 0.497500 0.505800
vt 0.456300 0.547000
vt 0.497500 0.990300
vt 0.456300 0.949100
vt 0.013000 0.990300
vt 0.054200 0.949100
vt 0.054200 0.547000
vt 0.992800 0.497600
vt 0.992800 0.013100
vt 0.951600 0.456400
vt 0.508300 0.013100
vt 0.549400 0.054200
vt 0.508300 0.497600
vt 0.508300 0.505800
vt 0.992800 0.505800
vt 0.951600 0.547000
vt 0.992800 0.990300
vt 0.951600 0.949100
vt 0.508300 0.990300
vt 0.549500 0.949100
vt 0.549500 0.547000
vt 0.012900 0.497600
vt 0.012900 0.013100
vt 0.054100 0.456400
vt 0.497400 0.013100
vt 0.456300 0.054200
vt 0.497400 0.497600
vt 0.489900 0.528500
vt 0.014400 0.528500
vt 0.014400 0.510300
vt 0.489900 0.510300
vt 0.489900 0.528600
vt 0.014400 0.528600
vt 0.014400 0.510400
vt 0.489900 0.510400
vt 0.553400 0.452400
vt 0.452300 0.452400
vt 0.951600 0.054200
vt 0.549400 0.456400
vt 0.054100 0.054200
vt 0.456300 0.456400
vn 0.000000 0.000000 0.999969
vn 0.000000 0.000000 1.000000
vn 0.000000 0.000000 -0.999969
vn 0.000000 0.000000 -1.000000
vn 0.000000 -0.999969 0.000000
vn 0.000000 -1.000000 0.000000
vn 0.999969 0.000000 0.000000
vn 1.000000 0.000000 0.000000
vn 0.000000 0.999969 0.000000
vn 0.000000 1.000000 0.000000
vn -1.000000 0.000000 0.000000
vn -0.999969 0.000000 0.000000
s 1
f 1/1/1 2/2/2 187/3/1
f 102/2/3 6/3/4 7/4/3
f 159/5/5 169/6/6 208/7/5
f 13/8/7 195/9/8 154/10/7
f 17/11/9 18/12/10 19/13/9
f 21/14/11 97/10/12 24/8/12
f 90/15/2 175/16/2 151/17/2
f 177/16/2 204/18/2 115/19/2
f 205/18/2 59/20/2 32/21/2
f 57/20/2 89/15/2 28/22/2
f 33/16/4 65/18/4 105/17/4
f 67/18/4 37/20/4 38/21/4
f 125/20/4 39/15/4 131/21/4
f 108/15/4 180/16/4 104/17/4
f 25/23/6 181/24/6 42/25/6
f 183/24/6 110/26/6 79/27/6
f 109/26/6 26/28/6 43/27/6
f 178/28/6 92/23/6 94/25/6
f 176/29/8 107/30/8 45/31/8
f 111/30/8 126/32/8 156/33/8
f 128/32/8 203/34/8 135/35/8
f 207/34/8 179/29/8 144/36/8
f 29/37/10 127/38/10 50/39/10
f 129/38/10 34/40/10 51/41/10
f 66/40/10 31/42/10 71/41/10
f 60/42/10 206/37/10 76/39/10
f 58/34/11 68/32/11 189/35/11
f 69/32/11 182/30/11 100/33/11
f 184/30/11 91/29/11 164/31/11
f 93/29/11 61/34/11 211/36/11
f 213/43/9 199/44/10 193/45/9
f 153/45/11 116/46/11 214/44/11
f 117/45/5 119/46/6 201/43/5
f 200/43/8 202/44/8 120/45/8
f 36/47/8 167/48/8 161/49/8
f 168/43/5 130/44/6 185/49/5
f 132/47/11 112/48/11 186/50/11
f 114/47/9 106/48/10 103/49/9
f 95/47/8 146/48/8 10/49/8
f 148/43/1 80/44/2 11/45/1
f 81/49/11 83/50/11 209/48/11
f 84/49/3 96/50/4 160/47/3
f 143/43/9 140/44/10 14/45/9
f 142/49/1 47/50/2 15/47/1
f 158/49/5 48/50/6 16/47/5
f 137/49/3 145/50/4 150/47/3
f 77/43/11 73/44/11 197/46/11
f 75/49/1 70/50/2 87/47/1
f 72/49/8 62/50/8 20/47/8
f 64/47/3 78/48/4 198/49/3
f 54/47/5 53/48/6 22/49/5
f 101/47/1 55/48/2 121/49/1
f 165/49/9 210/50/10 173/47/9
f 212/43/3 191/44/4 172/49/3
f 4/4/2 1/1/1 187/3/1
f 138/1/4 102/2/3 7/4/3
f 12/51/6 159/5/5 208/7/5
f 133/14/8 13/8/7 154/10/7
f 123/52/10 17/11/9 19/13/9
f 97/10/12 23/9/11 24/8/12
f 192/22/2 90/15/2 151/17/2
f 27/17/2 177/16/2 115/19/2
f 30/19/2 205/18/2 32/21/2
f 118/21/2 57/20/2 28/22/2
f 65/18/4 166/19/4 105/17/4
f 35/19/4 67/18/4 38/21/4
f 39/15/4 40/22/4 131/21/4
f 113/22/4 108/15/4 104/17/4
f 181/24/6 147/53/6 42/25/6
f 41/53/6 183/24/6 79/27/6
f 26/28/6 44/54/6 43/27/6
f 82/54/6 178/28/6 94/25/6
f 46/36/8 176/29/8 45/31/8
f 141/31/8 111/30/8 156/33/8
f 157/33/8 128/32/8 135/35/8
f 136/35/8 207/34/8 144/36/8
f 127/38/10 49/55/10 50/39/10
f 74/55/10 129/38/10 51/41/10
f 31/42/10 52/56/10 71/41/10
f 63/56/10 60/42/10 76/39/10
f 68/32/11 99/33/11 189/35/11
f 182/30/11 163/31/11 100/33/11
f 91/29/11 56/36/11 164/31/11
f 61/34/11 190/35/11 211/36/11
f 152/46/10 213/43/9 193/45/9
f 116/46/11 3/43/11 214/44/11
f 188/44/6 117/45/5 201/43/5
f 194/46/8 200/43/8 120/45/8
f 5/50/8 36/47/8 161/49/8
f 162/50/6 168/43/5 185/49/5
f 112/48/11 8/49/11 186/50/11
f 139/50/10 114/47/9 103/49/9
f 9/50/8 95/47/8 10/49/8
f 170/46/2 148/43/1 11/45/1
f 83/50/11 215/47/11 209/48/11
f 216/48/4 84/49/3 160/47/3
f 149/46/10 143/43/9 14/45/9
f 196/48/2 142/49/1 15/47/1
f 155/48/6 158/49/5 16/47/5
f 134/48/4 137/49/3 150/47/3
f 73/44/11 85/45/11 197/46/11
f 86/48/2 75/49/1 87/47/1
f 88/48/8 72/49/8 20/47/8
f 124/50/4 64/47/3 198/49/3
f 171/50/6 54/47/5 22/49/5
f 98/50/2 101/47/1 121/49/1
f 122/48/10 165/49/9 173/47/9
f 174/50/4 212/43/3 172/49/3
