{
    "asset":{
        "generator":"Khronos glTF Blender I/O v3.6.27",
        "version":"2.0"
    },
    "extensionsUsed":[
        "KHR_materials_emissive_strength"
    ],
    "scene":0,
    "scenes":[
        {
            "name":"Scene",
            "nodes":[
                0
            ]
        }
    ],
    "nodes":[
        {
            "mesh":0,
            "name":"Emissive Cube"
        }
    ],
    "materials":[
        {
            "doubleSided":true,
            "name":"DarkMetallic",
            "pbrMetallicRoughness":{
                "baseColorFactor":[
                    0.42027390003204346,
                    0.042027391493320465,
                    0.042027391493320465,
                    1
                ],
                "metallicFactor":0.6894736886024475,
                "roughnessFactor":0.2052631378173828
            }
        },
        {
            "doubleSided":true,
            "emissiveFactor":[
                1,
                0.7490026415805124,
                0.008266892825887344
            ],
            "extensions":{
                "KHR_materials_emissive_strength":{
                    "emissiveStrength":0.35
                }
            },
            "name":"Emissive",
            "pbrMetallicRoughness":{
                "baseColorFactor":[
                    1,
                    0.9545900225639343,
                    0.2697720229625702,
                    1
                ]
            }
        }
    ],
    "meshes":[
        {
            "name":"EmissiveCube",
            "primitives":[
                {
                    "attributes":{
                        "POSITION":0,
                        "NORMAL":1,
                        "TEXCOORD_0":2
                    },
                    "indices":3,
                    "material":0
                },
                {
                    "attributes":{
                        "POSITION":4,
                        "NORMAL":5,
                        "TEXCOORD_0":6
                    },
                    "indices":7,
                    "material":1
                }
            ]
        }
    ],
    "accessors":[
        {
            "bufferView":0,
            "componentType":5126,
            "count":20,
            "max":[
                1,
                1,
                1
            ],
            "min":[
                -1,
                -1,
                -1
            ],
            "type":"VEC3"
        },
        {
            "bufferView":1,
            "componentType":5126,
            "count":20,
            "type":"VEC3"
        },
        {
            "bufferView":2,
            "componentType":5126,
            "count":20,
            "type":"VEC2"
        },
        {
            "bufferView":3,
            "componentType":5123,
            "count":30,
            "type":"SCALAR"
        },
        {
            "bufferView":4,
            "componentType":5126,
            "count":4,
            "max":[
                1,
                1,
                1
            ],
            "min":[
                -1,
                -1,
                1
            ],
            "type":"VEC3"
        },
        {
            "bufferView":5,
            "componentType":5126,
            "count":4,
            "type":"VEC3"
        },
        {
            "bufferView":6,
            "componentType":5126,
            "count":4,
            "type":"VEC2"
        },
        {
            "bufferView":7,
            "componentType":5123,
            "count":6,
            "type":"SCALAR"
        }
    ],
    "bufferViews":[
        {
            "buffer":0,
            "byteLength":240,
            "byteOffset":0,
            "target":34962
        },
        {
            "buffer":0,
            "byteLength":240,
            "byteOffset":240,
            "target":34962
        },
        {
            "buffer":0,
            "byteLength":160,
            "byteOffset":480,
            "target":34962
        },
        {
            "buffer":0,
            "byteLength":60,
            "byteOffset":640,
            "target":34963
        },
        {
            "buffer":0,
            "byteLength":48,
            "byteOffset":700,
            "target":34962
        },
        {
            "buffer":0,
            "byteLength":48,
            "byteOffset":748,
            "target":34962
        },
        {
            "buffer":0,
            "byteLength":32,
            "byteOffset":796,
            "target":34962
        },
        {
            "buffer":0,
            "byteLength":12,
            "byteOffset":828,
            "target":34963
        }
    ],
    "buffers":[
        {
            "byteLength":840,
            "uri":"data:application/octet-stream;base64,"
        }
    ]
}
