{
    "asset" : {
        "generator" : "Khronos glTF Blender I/O v3.2.26",
        "version" : "2.0"
    },
    "scene" : 0,
    "scenes" : [
        {
            "name" : "SceneWithDuck",
            "nodes" : [
                1
            ]
        }
    ],
    "nodes" : [
        {
            "mesh" : 0,
            "name" : "duck",
            "scale" : [
                0.0010000000474974513,
                0.0010000000474974513,
                0.0010000000474974513
            ],
            "translation" : [
                -1.7999999523162842,
                0,
                0
            ]
        },
        {
            "children" : [
                0
            ],
            "name" : "duck.001"
        }
    ],
    "materials" : [
        {
            "name" : "blinn3-fx",
            "pbrMetallicRoughness" : {
                "baseColorTexture" : {
                    "index" : 0
                },
                "metallicFactor" : 0.10000000149011612,
                "roughnessFactor" : 0.10000000149011612
            }
        }
    ],
    "meshes" : [
        {
            "name" : "LOD3spShape",
            "primitives" : [
                {
                    "attributes" : {
                        "POSITION" : 0,
                        "NORMAL" : 1,
                        "TEXCOORD_0" : 2
                    },
                    "indices" : 3,
                    "material" : 0
                }
            ]
        }
    ],
    "textures" : [
        {
            "sampler" : 0,
            "source" : 0
        }
    ],
    "images" : [
        {
            "mimeType" : "image/png",
            "name" : "duckCM",
            "uri" : "duckCM.png"
        }
    ],
    "accessors" : [
        {
            "bufferView" : 0,
            "componentType" : 5126,
            "count" : 2399,
            "max" : [
                96.17990112304688,
                163.97000122070312,
                53.92519760131836
            ],
            "min" : [
                -69.29850006103516,
                9.929369926452637,
                -61.32819747924805
            ],
            "type" : "VEC3"
        },
        {
            "bufferView" : 1,
            "componentType" : 5126,
            "count" : 2399,
            "type" : "VEC3"
        },
        {
            "bufferView" : 2,
            "componentType" : 5126,
            "count" : 2399,
            "type" : "VEC2"
        },
        {
            "bufferView" : 3,
            "componentType" : 5123,
            "count" : 12636,
            "type" : "SCALAR"
        }
    ],
    "bufferViews" : [
        {
            "buffer" : 0,
            "byteLength" : 28788,
            "byteOffset" : 0
        },
        {
            "buffer" : 0,
            "byteLength" : 28788,
            "byteOffset" : 28788
        },
        {
            "buffer" : 0,
            "byteLength" : 19192,
            "byteOffset" : 57576
        },
        {
            "buffer" : 0,
            "byteLength" : 25272,
            "byteOffset" : 76768
        }
    ],
    "samplers" : [
        {
            "magFilter" : 9729,
            "minFilter" : 9987
        }
    ],
    "buffers" : [
        {
            "byteLength" : 102040,
            "uri" : "duck.bin"
        }
    ]
}
